<mxfile host="Electron" agent="Mozilla/5.0 (X11; Linux x86_64) AppleWebKit/537.36 (KHTML, like Gecko) draw.io/24.7.17 Chrome/128.0.6613.36 Electron/32.0.1 Safari/537.36" version="24.7.17">
  <diagram name="Page-1" id="J1nAUe5E3Sek8OFCevNs">
    <mxGraphModel dx="2455" dy="2092" grid="1" gridSize="10" guides="1" tooltips="1" connect="1" arrows="1" fold="1" page="1" pageScale="1" pageWidth="850" pageHeight="1100" background="#ffffff" math="0" shadow="0">
      <root>
        <mxCell id="0" />
        <mxCell id="1" parent="0" />
        <mxCell id="MVb4_MoycofhIAiusGOn-1" value="" style="ellipse;whiteSpace=wrap;html=1;fillColor=none;strokeColor=#000000;fontColor=#000000;" parent="1" vertex="1">
          <mxGeometry width="560" height="560" as="geometry" />
        </mxCell>
        <mxCell id="MVb4_MoycofhIAiusGOn-2" value="" style="endArrow=none;html=1;rounded=0;exitX=0.298;exitY=0.958;exitDx=0;exitDy=0;entryX=0.703;entryY=0.041;entryDx=0;entryDy=0;fillColor=#008a00;strokeColor=#000000;strokeWidth=2;entryPerimeter=0;exitPerimeter=0;" parent="1" source="MVb4_MoycofhIAiusGOn-1" target="MVb4_MoycofhIAiusGOn-1" edge="1">
          <mxGeometry width="50" height="50" relative="1" as="geometry">
            <mxPoint x="310" y="430" as="sourcePoint" />
            <mxPoint x="360" y="380" as="targetPoint" />
          </mxGeometry>
        </mxCell>
        <mxCell id="MVb4_MoycofhIAiusGOn-5" value="" style="endArrow=none;html=1;rounded=0;exitX=0;exitY=1;exitDx=0;exitDy=0;entryX=1;entryY=0;entryDx=0;entryDy=0;fillColor=#008a00;strokeColor=#000000;strokeWidth=2;" parent="1" source="MVb4_MoycofhIAiusGOn-1" target="MVb4_MoycofhIAiusGOn-1" edge="1">
          <mxGeometry width="50" height="50" relative="1" as="geometry">
            <mxPoint x="340" y="610" as="sourcePoint" />
            <mxPoint x="340" y="50" as="targetPoint" />
          </mxGeometry>
        </mxCell>
        <mxCell id="MVb4_MoycofhIAiusGOn-8" value="x1" style="text;html=1;align=center;verticalAlign=middle;whiteSpace=wrap;rounded=0;fillColor=none;strokeColor=none;fontColor=#000000;" parent="1" vertex="1">
          <mxGeometry x="370" y="-10" width="60" height="30" as="geometry" />
        </mxCell>
        <mxCell id="MVb4_MoycofhIAiusGOn-9" value="x1 + 2^246" style="text;html=1;align=center;verticalAlign=middle;whiteSpace=wrap;rounded=0;fillColor=none;strokeColor=none;fontColor=#000000;" parent="1" vertex="1">
          <mxGeometry x="480" y="50" width="80" height="30" as="geometry" />
        </mxCell>
        <mxCell id="MVb4_MoycofhIAiusGOn-15" value="x1 + n div 2 + 1" style="text;html=1;align=center;verticalAlign=middle;whiteSpace=wrap;rounded=0;fillColor=none;strokeColor=none;fontColor=#000000;" parent="1" vertex="1">
          <mxGeometry x="80" y="535" width="101" height="30" as="geometry" />
        </mxCell>
        <mxCell id="MVb4_MoycofhIAiusGOn-19" value="x1 + n div 2 + 2^246 + 1" style="text;html=1;align=center;verticalAlign=middle;whiteSpace=wrap;rounded=0;fillColor=none;strokeColor=none;fontColor=#000000;" parent="1" vertex="1">
          <mxGeometry x="-40" y="480" width="131" height="30" as="geometry" />
        </mxCell>
        <mxCell id="knB7vUtvQb_0Z3PsVPYo-1" value="" style="endArrow=none;dashed=1;html=1;strokeWidth=2;rounded=0;strokeColor=#000000;dashPattern=1 4;" parent="1" edge="1">
          <mxGeometry width="50" height="50" relative="1" as="geometry">
            <mxPoint x="290" y="270" as="sourcePoint" />
            <mxPoint x="470" y="90" as="targetPoint" />
            <Array as="points">
              <mxPoint x="300" y="240" />
              <mxPoint x="320" y="230" />
              <mxPoint x="320" y="200" />
              <mxPoint x="350" y="210" />
              <mxPoint x="330" y="180" />
              <mxPoint x="370" y="190" />
              <mxPoint x="340" y="150" />
              <mxPoint x="400" y="160" />
              <mxPoint x="360" y="120" />
              <mxPoint x="420" y="140" />
              <mxPoint x="370" y="80" />
              <mxPoint x="450" y="110" />
              <mxPoint x="390" y="40" />
            </Array>
          </mxGeometry>
        </mxCell>
        <mxCell id="fGI7tNNNk04t5hcvJXMr-1" value="" style="endArrow=none;dashed=1;html=1;strokeWidth=2;rounded=0;strokeColor=#000000;dashPattern=1 4;" edge="1" parent="1">
          <mxGeometry width="50" height="50" relative="1" as="geometry">
            <mxPoint x="271" y="290" as="sourcePoint" />
            <mxPoint x="91" y="470" as="targetPoint" />
            <Array as="points">
              <mxPoint x="261" y="320" />
              <mxPoint x="241" y="330" />
              <mxPoint x="241" y="360" />
              <mxPoint x="211" y="350" />
              <mxPoint x="231" y="380" />
              <mxPoint x="191" y="370" />
              <mxPoint x="221" y="410" />
              <mxPoint x="161" y="400" />
              <mxPoint x="201" y="440" />
              <mxPoint x="141" y="420" />
              <mxPoint x="191" y="480" />
              <mxPoint x="111" y="450" />
              <mxPoint x="171" y="520" />
            </Array>
          </mxGeometry>
        </mxCell>
        <mxCell id="fGI7tNNNk04t5hcvJXMr-2" value="" style="endArrow=none;html=1;rounded=0;strokeColor=#000000;" edge="1" parent="1">
          <mxGeometry width="50" height="50" relative="1" as="geometry">
            <mxPoint x="279.8" y="10" as="sourcePoint" />
            <mxPoint x="279.8" y="-10" as="targetPoint" />
          </mxGeometry>
        </mxCell>
        <mxCell id="fGI7tNNNk04t5hcvJXMr-3" value="" style="endArrow=none;html=1;rounded=0;strokeColor=#000000;" edge="1" parent="1">
          <mxGeometry width="50" height="50" relative="1" as="geometry">
            <mxPoint x="279.8" y="570" as="sourcePoint" />
            <mxPoint x="279.8" y="550" as="targetPoint" />
          </mxGeometry>
        </mxCell>
        <mxCell id="fGI7tNNNk04t5hcvJXMr-5" value="" style="endArrow=none;html=1;rounded=0;strokeColor=#000000;" edge="1" parent="1">
          <mxGeometry width="50" height="50" relative="1" as="geometry">
            <mxPoint x="550" y="279.8" as="sourcePoint" />
            <mxPoint x="570" y="279.8" as="targetPoint" />
          </mxGeometry>
        </mxCell>
        <mxCell id="fGI7tNNNk04t5hcvJXMr-6" value="" style="endArrow=none;html=1;rounded=0;strokeColor=#000000;" edge="1" parent="1">
          <mxGeometry width="50" height="50" relative="1" as="geometry">
            <mxPoint x="-10" y="279.8" as="sourcePoint" />
            <mxPoint x="10" y="279.8" as="targetPoint" />
          </mxGeometry>
        </mxCell>
        <mxCell id="fGI7tNNNk04t5hcvJXMr-9" value="0" style="text;html=1;align=center;verticalAlign=middle;whiteSpace=wrap;rounded=0;fillColor=none;strokeColor=none;fontColor=#000000;" vertex="1" parent="1">
          <mxGeometry x="250" y="-40" width="60" height="30" as="geometry" />
        </mxCell>
        <mxCell id="fGI7tNNNk04t5hcvJXMr-10" value="n div 4" style="text;html=1;align=center;verticalAlign=middle;whiteSpace=wrap;rounded=0;fillColor=none;strokeColor=none;fontColor=#000000;" vertex="1" parent="1">
          <mxGeometry x="570" y="265" width="60" height="30" as="geometry" />
        </mxCell>
        <mxCell id="fGI7tNNNk04t5hcvJXMr-11" value="n div 2" style="text;html=1;align=center;verticalAlign=middle;whiteSpace=wrap;rounded=0;fillColor=none;strokeColor=none;fontColor=#000000;" vertex="1" parent="1">
          <mxGeometry x="250" y="565" width="60" height="30" as="geometry" />
        </mxCell>
        <mxCell id="fGI7tNNNk04t5hcvJXMr-12" value="3n div 4" style="text;html=1;align=center;verticalAlign=middle;whiteSpace=wrap;rounded=0;fillColor=none;strokeColor=none;fontColor=#000000;" vertex="1" parent="1">
          <mxGeometry x="-70" y="265" width="60" height="30" as="geometry" />
        </mxCell>
      </root>
    </mxGraphModel>
  </diagram>
</mxfile>
